<svg id="Calque_1" data-name="Calque 1" xmlns="http://www.w3.org/2000/svg" viewBox="0 0 105.64 112.72"><defs><style>.cls-1{fill:#fff;}.cls-2{fill:#00365f;}.cls-3{fill:#37a29c;}</style></defs><title>Plan de travail 1</title><rect class="cls-1" width="105.64" height="112.72" rx="14.17" ry="14.17"/><path class="cls-2" d="M30.25,88.6V59a1.54,1.54,0,0,1,2.61-.88L65.09,88.6H81.67l-57-54.84c-3-2.89.31-4.8-8-4.8H10.52V88.6Z"/><path class="cls-3" d="M75.69,29v29.6a1.54,1.54,0,0,1-2.61.88L40.85,29H24.27l57,54.84c3,2.89-.31,4.8,8,4.8h6.15V29Z"/><path class="cls-2" d="M25.25,24.26H21.43L13.67,13.58V24.26H10.45V9.31h3.84L22,20V9.31h3.22Z"/><path class="cls-2" d="M36.89,9a9,9,0,0,1,6.31,2.14,7.25,7.25,0,0,1,2.35,5.63,7.22,7.22,0,0,1-2.39,5.56,8.91,8.91,0,0,1-6.27,2.19,9,9,0,0,1-6.3-2.19,7.22,7.22,0,0,1-2.39-5.56,7.3,7.3,0,0,1,2.32-5.62A9,9,0,0,1,36.89,9Zm0,13a4.76,4.76,0,0,0,3.66-1.42,5.35,5.35,0,0,0,1.33-3.81A5.36,5.36,0,0,0,40.54,13a4.75,4.75,0,0,0-3.65-1.43A4.82,4.82,0,0,0,33.21,13a5.35,5.35,0,0,0-1.34,3.82,5.43,5.43,0,0,0,1.31,3.79A4.76,4.76,0,0,0,36.89,22Z"/><path class="cls-3" d="M63.52,9.31,57,24.26H53.3L46.81,9.31h3.7l4.64,11.54L59.84,9.31Z"/><path class="cls-2" d="M79.92,24.26h-3.7l-1.89-4.1H67.44l-1.91,4.1h-3.7L69.36,9.31h3Zm-6.73-6.53-2.31-5-2.33,5Z"/><path class="cls-2" d="M95.54,24.26H81.8V9.31H95.39v2.63h-10v3.38h8.72v2.52H85.35v3.79H95.54Z"/><path class="cls-3" d="M18.91,102.65H10.52V93.34h8.3V95H12.69v2.1H18v1.57H12.69V101h6.22Z"/><path class="cls-3" d="M30,102.65H27.57L25,99.24l-1.29,1.7-1.29,1.71H20l3.79-5-3.3-4.35h2.34L25,96.15l2.15-2.81h2.31l-3.28,4.33Z"/><path class="cls-3" d="M31.16,93.34h4.59a5,5,0,0,1,3,.76,2.48,2.48,0,0,1,1.06,2.14,2.56,2.56,0,0,1-1.07,2.19,5,5,0,0,1-3,.78h-2.4v3.43H31.16Zm2.17,4.31h2.26A2.46,2.46,0,0,0,37,97.27a1.19,1.19,0,0,0,.52-1,1.14,1.14,0,0,0-.53-1,2.5,2.5,0,0,0-1.45-.37H33.33Z"/><path class="cls-3" d="M49.89,102.65H41.5V93.34h8.3V95H43.67v2.1H49v1.57H43.67V101h6.22Z"/><path class="cls-3" d="M61.88,102.65H59.37l-3.22-3.39H54v3.39H51.81V93.34h4.71a5,5,0,0,1,3,.77,2.51,2.51,0,0,1,1.06,2.16A2.58,2.58,0,0,1,59.94,98a2.88,2.88,0,0,1-1.6.93Zm-7.9-5h2.46q1.91,0,1.91-1.41a1.17,1.17,0,0,0-.52-1,2.61,2.61,0,0,0-1.5-.36H54Z"/><path class="cls-3" d="M71.06,94.9H67.73v7.74H65.56V94.9h-3.3V93.34h8.79Z"/><path class="cls-3" d="M74.62,102.65H72.45V93.34h2.17Z"/><path class="cls-3" d="M84.46,95.61a7.7,7.7,0,0,0-3.56-.89,3.86,3.86,0,0,0-1.65.29q-.61.29-.61.76a.65.65,0,0,0,.39.53,7.57,7.57,0,0,0,2,.51,21.3,21.3,0,0,1,2.27.51,3.87,3.87,0,0,1,1.54.86,2.1,2.1,0,0,1,.65,1.63A2.5,2.5,0,0,1,84.16,102a6.1,6.1,0,0,1-3.3.83,11.35,11.35,0,0,1-4.73-1l.63-1.5a10.56,10.56,0,0,0,4,.93,3.86,3.86,0,0,0,1.8-.36,1.08,1.08,0,0,0,.68-1,.77.77,0,0,0-.42-.65,7.28,7.28,0,0,0-2.14-.56,19.59,19.59,0,0,1-2.2-.48A3.64,3.64,0,0,1,77,97.4a2.07,2.07,0,0,1-.62-1.59,2.19,2.19,0,0,1,1.21-1.92,6.28,6.28,0,0,1,3.27-.73,9.76,9.76,0,0,1,4.21.94Z"/><path class="cls-3" d="M95.48,102.65H87.09V93.34h8.3V95H89.26v2.1h5.33v1.57H89.26V101h6.22Z"/></svg>