<svg id="Calque_1" data-name="Calque 1" xmlns="http://www.w3.org/2000/svg" viewBox="0 0 199.36 251.45"><defs><style>.cls-1{fill:#00365f;}.cls-2{fill:#37a29c;}</style></defs><title>logo Ecrans</title><path class="cls-1" d="M54.71,190.19V131.66c0-2.35,3.33-3.48,5.16-1.75l63.76,60.28h32.8L43.65,81.73c-5.94-5.72.62-9.48-15.79-9.48H15.69V190.19Z"/><path class="cls-2" d="M144.59,72.25v58.54c0,2.35-3.33,3.48-5.16,1.75L75.68,72.25H42.88L155.65,180.71c5.94,5.72-.62,9.48,15.79,9.48h12.17V72.25Z"/><path class="cls-1" d="M44.83,62.93H37.26L21.92,41.8V62.93H15.56V33.36h7.59L38.46,54.52V33.36h6.36Z"/><path class="cls-1" d="M67.85,32.79q7.83,0,12.48,4.23A14.34,14.34,0,0,1,85,48.15a14.29,14.29,0,0,1-4.72,11q-4.72,4.34-12.41,4.34T55.38,59.15a14.27,14.27,0,0,1-4.73-11A14.44,14.44,0,0,1,55.24,37Q59.83,32.79,67.85,32.79Zm0,25.71a9.43,9.43,0,0,0,7.23-2.81,10.59,10.59,0,0,0,2.63-7.54,10.6,10.6,0,0,0-2.64-7.54,9.4,9.4,0,0,0-7.22-2.83,9.53,9.53,0,0,0-7.29,2.81,10.59,10.59,0,0,0-2.64,7.57,10.75,10.75,0,0,0,2.58,7.5Q63.08,58.5,67.85,58.5Z"/><path class="cls-2" d="M120.51,33.36l-12.9,29.57H100.3L87.48,33.36h7.32L104,56.18l9.27-22.82Z"/><path class="cls-1" d="M153,62.93h-7.32l-3.74-8.11H128.27l-3.77,8.11h-7.32l14.88-29.57h6ZM139.65,50l-4.58-9.83L130.47,50Z"/><path class="cls-1" d="M183.84,62.93H156.68V33.36h26.87v5.2H163.7v6.68H181v5H163.7v7.5h20.14Z"/><path class="cls-2" d="M32.29,218H15.7V199.57H32.11v3.24H20V207H30.53v3.11H20v4.67H32.29Z"/><path class="cls-2" d="M54.14,218H49.41l-5.11-6.73-2.56,3.35L39.19,218H34.48L42,208.16l-6.53-8.6h4.64q4.22,5.53,4.22,5.56l4.26-5.56h4.56l-6.49,8.57Z"/><path class="cls-2" d="M56.52,199.57h9.08a9.9,9.9,0,0,1,5.85,1.51,4.91,4.91,0,0,1,2.1,4.23,5.06,5.06,0,0,1-2.12,4.34,9.81,9.81,0,0,1-5.88,1.55H60.81V218H56.52Zm4.29,8.52h4.47a4.86,4.86,0,0,0,2.89-.74,2.35,2.35,0,0,0,1-2,2.26,2.26,0,0,0-1-1.94,5,5,0,0,0-2.87-.73H60.81Z"/><path class="cls-2" d="M93.57,218H77V199.57H93.39v3.24H81.26V207H91.8v3.11H81.26v4.67H93.57Z"/><path class="cls-2" d="M117.28,218h-5l-6.37-6.71h-4.29V218H97.37V199.57h9.32a9.81,9.81,0,0,1,5.85,1.53,5,5,0,0,1,2.1,4.27,5.11,5.11,0,0,1-1.2,3.45,5.69,5.69,0,0,1-3.16,1.85Zm-15.62-9.81h4.87q3.77,0,3.77-2.78a2.31,2.31,0,0,0-1-2,5.15,5.15,0,0,0-3-.72h-4.65Z"/><path class="cls-2" d="M135.43,202.66h-6.58V218h-4.29V202.66H118v-3.09h17.39Z"/><path class="cls-2" d="M142.47,218h-4.29V199.57h4.29Z"/><path class="cls-2" d="M161.94,204.05a15.22,15.22,0,0,0-7-1.76,7.64,7.64,0,0,0-3.26.58q-1.21.58-1.21,1.51a1.28,1.28,0,0,0,.76,1.06,15,15,0,0,0,3.95,1,42.3,42.3,0,0,1,4.49,1,7.66,7.66,0,0,1,3,1.7,4.15,4.15,0,0,1,1.29,3.22,4.93,4.93,0,0,1-2.62,4.32,12.07,12.07,0,0,1-6.53,1.64,22.46,22.46,0,0,1-9.35-2l1.26-3a20.89,20.89,0,0,0,8,1.84,7.64,7.64,0,0,0,3.55-.71,2.14,2.14,0,0,0,1.35-1.91,1.53,1.53,0,0,0-.83-1.28,14.38,14.38,0,0,0-4.22-1.11,38.71,38.71,0,0,1-4.35-1,7.21,7.21,0,0,1-2.92-1.65,4.1,4.1,0,0,1-1.23-3.14,4.32,4.32,0,0,1,2.39-3.8,12.41,12.41,0,0,1,6.46-1.45,19.3,19.3,0,0,1,8.33,1.85Z"/><path class="cls-2" d="M183.74,218h-16.6V199.57h16.42v3.24H171.44V207H182v3.11H171.44v4.67h12.31Z"/><rect class="cls-1" x="15.51" y="20.09" width="168.09" height="4"/><rect class="cls-1" x="15.63" y="227.36" width="168.09" height="4"/></svg>